# xmcd
#
# Track frame offsets:
#	182
#	27990
#	54927
#	77130
#	95092
#	132035
#	148590
#	163820
#	202690
#
# Disc length: 2941 seconds
#
# Revision: 2
# Processed by: cddbd v1.5.2PL0 Copyright (c) Steve Scherf et al.
# Submitted via: VUPlayer 2.49
#
DISCID=710b7b09
DTITLE=Yello - Flag =ADD=
DYEAR=1988
DGENRE=Syntiepop
TTITLE0=Tied Up
TTITLE1=Of Course I'm Lying
TTITLE2=3rd of June
TTITLE3=Blazing Saddles
TTITLE4=The Race
TTITLE5=Alhambra
TTITLE6=Otto di Catania
TTITLE7=Tied Up in Red
TTITLE8=Tied Up in Gear
EXTD=
EXTT0=
EXTT1=
EXTT2=
EXTT3=
EXTT4=
EXTT5=
EXTT6=
EXTT7=
EXTT8=
PLAYORDER=
